<svg width="151" height="151" viewBox="0 0 151 151" fill="none" xmlns="http://www.w3.org/2000/svg">
<mask id="mask0_450_11" style="mask-type:luminance" maskUnits="userSpaceOnUse" x="45" y="45" width="61" height="61">
<path d="M45.3 45.3H105.7V105.7H45.3V45.3Z" fill="white"/>
</mask>
<g mask="url(#mask0_450_11)">
<path d="M99 75C99 75.3761 98.9904 75.7523 98.9725 76.1284C98.9533 76.5046 98.9257 76.8795 98.8898 77.2545C98.8527 77.6294 98.8059 78.002 98.7508 78.3745C98.6957 78.7471 98.631 79.1184 98.558 79.4874C98.4849 79.8564 98.4022 80.2229 98.3112 80.5883C98.219 80.9536 98.1183 81.3166 98.0093 81.676C97.9003 82.0366 97.7817 82.3935 97.6559 82.7481C97.529 83.1027 97.3936 83.4537 97.2486 83.8023C97.1049 84.1497 96.9528 84.4935 96.7922 84.8337C96.6305 85.1739 96.4616 85.5105 96.2843 85.8423C96.107 86.1742 95.9214 86.5012 95.7273 86.8246C95.5344 87.1469 95.3332 87.4655 95.1235 87.7782C94.9151 88.0908 94.6983 88.3987 94.4743 88.7006C94.2491 89.0036 94.0179 89.2995 93.7795 89.5906C93.5399 89.8817 93.2943 90.1668 93.0416 90.4459C92.7888 90.7251 92.5301 90.997 92.2629 91.2629C91.997 91.5301 91.7251 91.7888 91.4459 92.0416C91.1668 92.2943 90.8817 92.5399 90.5906 92.7795C90.2995 93.0179 90.0036 93.2491 89.7006 93.4743C89.3987 93.6983 89.0908 93.9151 88.7782 94.1235C88.4655 94.3332 88.1469 94.5344 87.8246 94.7273C87.5012 94.9214 87.1742 95.107 86.8423 95.2843C86.5105 95.4616 86.1739 95.6305 85.8337 95.7922C85.4935 95.9528 85.1497 96.1049 84.8023 96.2486C84.4537 96.3936 84.1027 96.529 83.7481 96.6559C83.3935 96.7817 83.0366 96.9003 82.676 97.0093C82.3166 97.1183 81.9536 97.219 81.5883 97.3112C81.2229 97.4022 80.8564 97.4849 80.4874 97.558C80.1184 97.631 79.7471 97.6957 79.3745 97.7508C79.002 97.8059 78.6294 97.8527 78.2545 97.8898C77.8795 97.9257 77.5046 97.9533 77.1284 97.9725C76.7523 97.9904 76.3761 98 76 98C75.6239 98 75.2477 97.9904 74.8716 97.9725C74.4954 97.9533 74.1205 97.9257 73.7455 97.8898C73.3706 97.8527 72.998 97.8059 72.6255 97.7508C72.2529 97.6957 71.8816 97.631 71.5126 97.558C71.1436 97.4849 70.7771 97.4022 70.4117 97.3112C70.0464 97.219 69.6834 97.1183 69.324 97.0093C68.9634 96.9003 68.6065 96.7817 68.2519 96.6559C67.8973 96.529 67.5463 96.3936 67.1977 96.2486C66.8503 96.1049 66.5065 95.9528 66.1663 95.7922C65.8261 95.6305 65.4895 95.4616 65.1577 95.2843C64.8258 95.107 64.4988 94.9214 64.1754 94.7273C63.8531 94.5344 63.5345 94.3332 63.2218 94.1235C62.9092 93.9151 62.6013 93.6983 62.2994 93.4743C61.9964 93.2491 61.7005 93.0179 61.4094 92.7795C61.1183 92.5399 60.8332 92.2943 60.5541 92.0416C60.2749 91.7888 60.003 91.5301 59.7371 91.2629C59.4699 90.997 59.2112 90.7251 58.9584 90.4459C58.7057 90.1668 58.4601 89.8817 58.2205 89.5906C57.9821 89.2995 57.7509 89.0036 57.5257 88.7006C57.3017 88.3987 57.0849 88.0908 56.8765 87.7782C56.6668 87.4655 56.4656 87.1469 56.2727 86.8246C56.0786 86.5012 55.893 86.1742 55.7157 85.8423C55.5384 85.5105 55.3695 85.1739 55.2078 84.8337C55.0472 84.4935 54.8951 84.1497 54.7514 83.8023C54.6064 83.4537 54.471 83.1027 54.3441 82.7481C54.2171 82.3935 54.0997 82.0366 53.9907 81.676C53.8817 81.3166 53.781 80.9536 53.6888 80.5883C53.5978 80.2229 53.5151 79.8564 53.442 79.4874C53.369 79.1184 53.3043 78.7471 53.2492 78.3745C53.1941 78.002 53.1473 77.6294 53.1102 77.2545C53.0743 76.8795 53.0467 76.5046 53.0276 76.1284C53.0096 75.7523 53 75.3761 53 75C53 74.6239 53.0096 74.2477 53.0276 73.8716C53.0467 73.4954 53.0743 73.1205 53.1102 72.7455C53.1473 72.3706 53.1941 71.998 53.2492 71.6255C53.3043 71.2529 53.369 70.8816 53.442 70.5126C53.5151 70.1436 53.5978 69.7771 53.6888 69.4117C53.781 69.0464 53.8817 68.6834 53.9907 68.324C54.0997 67.9634 54.2171 67.6065 54.3441 67.2519C54.471 66.8973 54.6064 66.5463 54.7514 66.1977C54.8951 65.8503 55.0472 65.5065 55.2078 65.1663C55.3695 64.8261 55.5384 64.4895 55.7157 64.1577C55.893 63.8258 56.0786 63.4988 56.2727 63.1754C56.4656 62.8531 56.6668 62.5345 56.8765 62.2218C57.0849 61.9092 57.3017 61.6013 57.5257 61.2994C57.7509 60.9964 57.9821 60.7005 58.2205 60.4094C58.4601 60.1183 58.7057 59.8332 58.9584 59.5541C59.2112 59.2749 59.4699 59.003 59.7371 58.7371C60.003 58.4699 60.2749 58.2112 60.5541 57.9584C60.8332 57.7057 61.1183 57.4601 61.4094 57.2205C61.7005 56.9821 61.9964 56.7509 62.2994 56.5257C62.6013 56.3017 62.9092 56.0849 63.2218 55.8765C63.5345 55.6668 63.8531 55.4656 64.1754 55.2727C64.4988 55.0786 64.8258 54.893 65.1577 54.7157C65.4895 54.5384 65.8261 54.3695 66.1663 54.2078C66.5065 54.0472 66.8503 53.8951 67.1977 53.7514C67.5463 53.6064 67.8973 53.471 68.2519 53.3441C68.6065 53.2171 68.9634 53.0997 69.324 52.9907C69.6834 52.8817 70.0464 52.781 70.4117 52.6888C70.7771 52.5978 71.1436 52.5151 71.5126 52.442C71.8816 52.369 72.2529 52.3043 72.6255 52.2492C72.998 52.1941 73.3706 52.1473 73.7455 52.1102C74.1205 52.0743 74.4954 52.0467 74.8716 52.0276C75.2477 52.0096 75.6239 52 76 52C76.3761 52 76.7523 52.0096 77.1284 52.0276C77.5046 52.0467 77.8795 52.0743 78.2545 52.1102C78.6294 52.1473 79.002 52.1941 79.3745 52.2492C79.7471 52.3043 80.1184 52.369 80.4874 52.442C80.8564 52.5151 81.2229 52.5978 81.5883 52.6888C81.9536 52.781 82.3166 52.8817 82.676 52.9907C83.0366 53.0997 83.3935 53.2171 83.7481 53.3441C84.1027 53.471 84.4537 53.6064 84.8023 53.7514C85.1497 53.8951 85.4935 54.0472 85.8337 54.2078C86.1739 54.3695 86.5105 54.5384 86.8423 54.7157C87.1742 54.893 87.5012 55.0786 87.8246 55.2727C88.1469 55.4656 88.4655 55.6668 88.7782 55.8765C89.0908 56.0849 89.3987 56.3017 89.7006 56.5257C90.0036 56.7509 90.2995 56.9821 90.5906 57.2205C90.8817 57.4601 91.1668 57.7057 91.4459 57.9584C91.7251 58.2112 91.997 58.4699 92.2629 58.7371C92.5301 59.003 92.7888 59.2749 93.0416 59.5541C93.2943 59.8332 93.5399 60.1183 93.7795 60.4094C94.0179 60.7005 94.2491 60.9964 94.4743 61.2994C94.6983 61.6013 94.9151 61.9092 95.1235 62.2218C95.3332 62.5345 95.5344 62.8531 95.7273 63.1754C95.9214 63.4988 96.107 63.8258 96.2843 64.1577C96.4616 64.4895 96.6305 64.8261 96.7922 65.1663C96.9528 65.5065 97.1049 65.8503 97.2486 66.1977C97.3936 66.5463 97.529 66.8973 97.6559 67.2519C97.7817 67.6065 97.9003 67.9634 98.0093 68.324C98.1183 68.6834 98.219 69.0464 98.3112 69.4117C98.4022 69.7771 98.4849 70.1436 98.558 70.5126C98.631 70.8816 98.6957 71.2529 98.7508 71.6255C98.8059 71.998 98.8527 72.3706 98.8898 72.7455C98.9257 73.1205 98.9533 73.4954 98.9725 73.8716C98.9904 74.2477 99 74.6239 99 75Z" fill="#00CD1F"/>
</g>
<path d="M144.601 75.5C144.601 76.6309 144.575 77.7618 144.518 78.8912C144.463 80.0206 144.38 81.1483 144.27 82.273C144.158 83.3992 144.019 84.5207 143.854 85.639C143.688 86.7574 143.494 87.8726 143.274 88.9815C143.054 90.0904 142.805 91.193 142.531 92.2909C142.256 93.3872 141.954 94.4772 141.625 95.5594C141.298 96.6416 140.943 97.7143 140.562 98.7792C140.182 99.844 139.774 100.899 139.342 101.944C138.909 102.988 138.451 104.022 137.967 105.044C137.484 106.066 136.976 107.076 136.443 108.074C135.909 109.072 135.353 110.055 134.771 111.026C134.189 111.995 133.585 112.951 132.956 113.89C132.328 114.831 131.677 115.756 131.004 116.663C130.329 117.572 129.634 118.464 128.916 119.337C128.199 120.212 127.46 121.067 126.702 121.906C125.942 122.744 125.162 123.562 124.363 124.363C123.562 125.162 122.744 125.942 121.906 126.702C121.067 127.46 120.212 128.199 119.337 128.916C118.464 129.633 117.572 130.329 116.663 131.004C115.756 131.677 114.831 132.328 113.89 132.955C112.951 133.585 111.995 134.189 111.026 134.771C110.055 135.353 109.072 135.909 108.074 136.443C107.076 136.976 106.067 137.484 105.044 137.967C104.022 138.451 102.988 138.909 101.944 139.342C100.9 139.774 99.8441 140.181 98.7792 140.562C97.7144 140.943 96.6416 141.298 95.5595 141.625C94.4773 141.954 93.3873 142.256 92.2909 142.531C91.193 142.805 90.0904 143.054 88.9815 143.274C87.8726 143.494 86.7574 143.687 85.6391 143.854C84.5207 144.019 83.3992 144.158 82.273 144.269C81.1484 144.38 80.0206 144.463 78.8913 144.518C77.7619 144.575 76.631 144.601 75.5001 144.601C74.3691 144.601 73.2382 144.575 72.1088 144.518C70.9795 144.463 69.8517 144.38 68.7271 144.269C67.6009 144.158 66.4794 144.019 65.361 143.854C64.2427 143.687 63.1275 143.494 62.0186 143.274C60.9097 143.054 59.8071 142.805 58.7092 142.531C57.6129 142.256 56.5228 141.954 55.4407 141.625C54.3585 141.298 53.2858 140.943 52.2209 140.562C51.156 140.181 50.1006 139.774 49.0562 139.342C48.0118 138.909 46.9784 138.451 45.956 137.967C44.9336 137.484 43.9238 136.976 42.9249 136.443C41.9277 135.909 40.9446 135.353 39.9742 134.771C39.0052 134.189 38.0489 133.585 37.1099 132.955C36.1693 132.328 35.2444 131.677 34.3368 131.004C33.4277 130.329 32.5358 129.633 31.6629 128.916C30.7883 128.199 29.9327 127.46 29.0943 126.702C28.2559 125.942 27.438 125.162 26.6374 124.363C25.8384 123.562 25.0582 122.744 24.2985 121.906C23.5403 121.067 22.8011 120.212 22.0838 119.337C21.3666 118.464 20.6713 117.572 19.9965 116.663C19.3233 115.756 18.6721 114.831 18.0446 113.89C17.4154 112.951 16.8114 111.995 16.2294 111.026C15.6474 110.055 15.0906 109.072 14.5574 108.074C14.0242 107.076 13.5161 106.066 13.0332 105.044C12.5488 104.022 12.0911 102.988 11.6585 101.944C11.226 100.899 10.8186 99.844 10.4379 98.7792C10.0573 97.7143 9.70181 96.6416 9.37464 95.5594C9.0459 94.4772 8.7439 93.3872 8.46864 92.2909C8.19495 91.193 7.94643 90.0904 7.72622 88.9815C7.50601 87.8726 7.31255 86.7574 7.14582 85.639C6.98066 84.5207 6.84224 83.3992 6.73057 82.273C6.62046 81.1483 6.5371 80.0206 6.48205 78.8912C6.42542 77.7618 6.39868 76.6309 6.39868 75.5C6.39868 74.3691 6.42542 73.2381 6.48205 72.1088C6.5371 70.9794 6.62046 69.8516 6.73057 68.727C6.84224 67.6008 6.98066 66.4793 7.14582 65.361C7.31255 64.2426 7.50601 63.1274 7.72622 62.0185C7.94643 60.9096 8.19495 59.807 8.46864 58.7091C8.7439 57.6128 9.0459 56.5228 9.37464 55.4406C9.70181 54.3584 10.0573 53.2857 10.4379 52.2208C10.8186 51.156 11.226 50.1005 11.6585 49.0561C12.0911 48.0117 12.5488 46.9783 13.0332 45.9559C13.5161 44.9335 14.0242 43.9237 14.5574 42.9249C15.0906 41.9277 15.6474 40.9446 16.2294 39.9741C16.8114 39.0052 17.4154 38.0489 18.0446 37.1098C18.6721 36.1692 19.3233 35.2443 19.9965 34.3368C20.6713 33.4276 21.3666 32.5358 22.0838 31.6628C22.8011 30.7883 23.5403 29.9326 24.2985 29.0942C25.0582 28.2559 25.8384 27.438 26.6374 26.6373C27.438 25.8383 28.2559 25.0581 29.0943 24.2984C29.9327 23.5403 30.7883 22.801 31.6629 22.0837C32.5358 21.3665 33.4277 20.6713 34.3368 19.9965C35.2444 19.3233 36.1693 18.6721 37.1099 18.0445C38.0489 17.4153 39.0052 16.8113 39.9742 16.2294C40.9446 15.6474 41.9277 15.0906 42.9249 14.5573C43.9238 14.0241 44.9336 13.5161 45.956 13.0332C46.9784 12.5487 48.0118 12.091 49.0562 11.6585C50.1006 11.2259 51.156 10.8185 52.2209 10.4379C53.2858 10.0572 54.3585 9.70175 55.4407 9.37458C56.5228 9.04584 57.6129 8.74384 58.7092 8.46858C59.8071 8.19489 60.9097 7.94637 62.0186 7.72616C63.1275 7.50596 64.2427 7.31249 65.361 7.14576C66.4794 6.9806 67.6009 6.84218 68.7271 6.73051C69.8517 6.6204 70.9795 6.53704 72.1088 6.48199C73.2382 6.42536 74.3691 6.39862 75.5001 6.39862C76.631 6.39862 77.7619 6.42536 78.8913 6.48199C80.0206 6.53704 81.1484 6.6204 82.273 6.73051C83.3992 6.84218 84.5207 6.9806 85.6391 7.14576C86.7574 7.31249 87.8726 7.50596 88.9815 7.72616C90.0904 7.94637 91.193 8.19489 92.2909 8.46858C93.3873 8.74384 94.4773 9.04584 95.5595 9.37458C96.6416 9.70175 97.7144 10.0572 98.7792 10.4379C99.8441 10.8185 100.9 11.2259 101.944 11.6585C102.988 12.091 104.022 12.5487 105.044 13.0332C106.067 13.5161 107.076 14.0241 108.074 14.5573C109.072 15.0906 110.055 15.6474 111.026 16.2294C111.995 16.8113 112.951 17.4153 113.89 18.0445C114.831 18.6721 115.756 19.3233 116.663 19.9965C117.572 20.6713 118.464 21.3665 119.337 22.0837C120.212 22.801 121.067 23.5403 121.906 24.2984C122.744 25.0581 123.562 25.8383 124.363 26.6373C125.162 27.438 125.942 28.2559 126.702 29.0942C127.46 29.9326 128.199 30.7883 128.916 31.6628C129.634 32.5358 130.329 33.4276 131.004 34.3368C131.677 35.2443 132.328 36.1692 132.956 37.1098C133.585 38.0489 134.189 39.0052 134.771 39.9741C135.353 40.9446 135.909 41.9277 136.443 42.9249C136.976 43.9237 137.484 44.9335 137.967 45.9559C138.451 46.9783 138.909 48.0117 139.342 49.0561C139.774 50.1005 140.182 51.156 140.562 52.2208C140.943 53.2857 141.298 54.3584 141.625 55.4406C141.954 56.5228 142.256 57.6128 142.531 58.7091C142.805 59.807 143.054 60.9096 143.274 62.0185C143.494 63.1274 143.688 64.2426 143.854 65.361C144.019 66.4793 144.158 67.6008 144.27 68.727C144.38 69.8516 144.463 70.9794 144.518 72.1088C144.575 73.2381 144.601 74.3691 144.601 75.5Z" stroke="#00CD1F" stroke-width="5"/>
</svg>
